<svg xmlns="http://www.w3.org/2000/svg" viewBox="0 0 45.71 34.9"><defs><style>.cls-1{fill:#eb6514;}</style></defs><g id="Livello_2" data-name="Livello 2"><g id="Livello_1-2" data-name="Livello 1"><g id="acdYDI.tif"><path class="cls-1" d="M20.94,0h3.89c1.49.22,3,.37,4.46.67,4,.79,7.52,2.4,10,5.75a14.49,14.49,0,0,1,2.73,7.94l.9.08a3.05,3.05,0,0,1,.57,5.93,7.67,7.67,0,0,1-1.92.15c-12.45,0-24.9,0-37.34,0-2,0-3.48-.53-4.27-2.45V16.82c.7-1.61,1.85-2.57,3.47-2.47A46.75,46.75,0,0,1,4.91,9.17C6.83,4.45,10.71,2.07,15.45.9,17.25.46,19.11.29,20.94,0Zm1.88,14.4H37.93c1.49,0,1.62-.17,1.31-1.63a11.2,11.2,0,0,0-8.16-8.89,27.52,27.52,0,0,0-16.44,0,11.08,11.08,0,0,0-8.11,9c-.24,1.28-.1,1.46,1.18,1.46Z"/><path class="cls-1" d="M0,25.44V23.72c.62-1,1.3-2,2.62-2.13a11.13,11.13,0,0,1,2.58,0c6.11.87,12.21,1.84,18.33,2.67a21.6,21.6,0,0,0,6.4.28c3.3-.59,6.48-1.8,9.74-2.66a11,11,0,0,1,3.18-.32,3,3,0,0,1,2.85,2.86,3.12,3.12,0,0,1-2.51,3.18l-1.12.21c0,.74,0,1.45,0,2.17a5,5,0,0,1-4.91,4.89c-.43,0-.87,0-1.3,0h-27a5,5,0,0,1-5.33-5.23c0-.6,0-1.2,0-1.86A3.71,3.71,0,0,1,0,25.44Zm6.42,2.34c-.58,3.06.23,4.55,3.28,4.46,5-.14,10.06,0,15.1,0H36.88c1.53,0,2.43-.7,2.59-2a21.09,21.09,0,0,0,0-2.39Z"/><path class="cls-1" d="M14.63,5.07a1.32,1.32,0,1,1,0,2.63,1.24,1.24,0,0,1-1.25-1.32C13.36,5.56,13.85,5.17,14.63,5.07Z"/><path class="cls-1" d="M33.5,8.47a1.19,1.19,0,0,1-1.27,1.25A1.21,1.21,0,0,1,30.9,8.49a1.29,1.29,0,0,1,1.34-1.35A1.25,1.25,0,0,1,33.5,8.47Z"/><path class="cls-1" d="M12.34,11A1.19,1.19,0,0,1,11,12.21a1.24,1.24,0,0,1-1.3-1.28,1.3,1.3,0,0,1,1.37-1.32A1.24,1.24,0,0,1,12.34,11Z"/><path class="cls-1" d="M18.43,9.6a1.23,1.23,0,0,1,1.24,1.27,1.25,1.25,0,0,1-1.21,1.36,1.37,1.37,0,0,1-1.39-1.33A1.38,1.38,0,0,1,18.43,9.6Z"/></g></g></g></svg>