<svg xmlns="http://www.w3.org/2000/svg" viewBox="0 0 43.81 25.5"><defs><style>.cls-1{fill:#eb6514;}</style></defs><g id="Livello_2" data-name="Livello 2"><g id="Livello_1-2" data-name="Livello 1"><g id="_9HGupf" data-name="9HGupf"><path class="cls-1" d="M39.16,25.5c-1.95-.3-3.91-.55-5.86-.89a65.23,65.23,0,0,0-11.57-1.26,59.8,59.8,0,0,0-9.43.95c-2.16.36-4.33.73-6.51,1a10.39,10.39,0,0,1-2.67-.05,3.38,3.38,0,0,1-3-3.12A8.86,8.86,0,0,1,1.3,16.24a2.63,2.63,0,0,0,.12-2.92,3.24,3.24,0,0,1,.17-3.6,2.85,2.85,0,0,1,2.3-1.29,17.46,17.46,0,0,1,1.77.07c.92.06,1.16-.12,1.26-1C7,6.9,7,6.3,7.1,5.72a3.06,3.06,0,0,1,4.06-2.45,17.15,17.15,0,0,1,1.76.78c.82.37,1,.29,1.41-.52.22-.48.41-1,.67-1.43a3.19,3.19,0,0,1,5.22-.73c.35.34.66.72,1,1.07.57.56.8.54,1.32-.06A14.6,14.6,0,0,1,24,.73,3.37,3.37,0,0,1,29.18,2a18.63,18.63,0,0,1,.54,1.8c.15.48.34.57.79.32s.81-.48,1.21-.73C33.84,2.06,37.06,4,37,6.47c0,.46,0,.91,0,1.37s.19.61.58.61.85,0,1.27-.08A3.3,3.3,0,0,1,42.76,11a3.5,3.5,0,0,1-.3,2.18c-.79,1.88-.79,1.41.18,3.27a9.27,9.27,0,0,1,1.12,5.43,3.56,3.56,0,0,1-3.67,3.51c-.3,0-.61,0-.91,0ZM4.72,24.21c.83-.09,1.75-.17,2.67-.3,3.29-.49,6.57-1.06,9.87-1.49a35.88,35.88,0,0,1,9.26,0c3.34.42,6.65,1,10,1.5a12.45,12.45,0,0,0,4,.16,2.2,2.2,0,0,0,2-2.09,7.87,7.87,0,0,0-.87-4.81l-.77-1.54a2,2,0,0,1-.09-1.58c.19-.54.46-1.06.61-1.61a2.85,2.85,0,0,0,.12-1.32,2,2,0,0,0-2.32-1.57,15.1,15.1,0,0,1-1.77.09A1.61,1.61,0,0,1,35.8,8c0-.45,0-.91,0-1.37A2.28,2.28,0,0,0,34.5,4.51a2.14,2.14,0,0,0-2.39,0c-.39.24-.77.51-1.17.71a1.55,1.55,0,0,1-2.3-.92,12.15,12.15,0,0,1-.41-1.46A2.23,2.23,0,0,0,24.38,2c-.34.44-.68.89-1.06,1.3a1.74,1.74,0,0,1-2.81.11c-.42-.39-.79-.83-1.19-1.24A2,2,0,0,0,16,2.75c-.21.44-.4.89-.6,1.34a1.93,1.93,0,0,1-2.93,1.08,17.68,17.68,0,0,0-1.67-.74A1.84,1.84,0,0,0,8.29,5.94c-.09.55-.1,1.11-.16,1.66A2.08,2.08,0,0,1,5.52,9.7c-.42,0-.84,0-1.26-.08a2,2,0,0,0-1.95,2.71c.16.43.34.85.53,1.26a2.41,2.41,0,0,1,0,2.33c-.21.39-.4.78-.61,1.17a8,8,0,0,0-.91,4.8,2.23,2.23,0,0,0,2.08,2.19C3.77,24.14,4.19,24.16,4.72,24.21Z"/><path class="cls-1" d="M7.25,18.77H6.19A8.2,8.2,0,0,1,7,15.14a11.77,11.77,0,0,1,5.65-5.62,20,20,0,0,1,18.86.16,11.66,11.66,0,0,1,3.3,2.53l-.79.87c-5.18-5.23-14.58-5.86-20.8-2.51a10.6,10.6,0,0,0-5.34,5.66A21,21,0,0,0,7.25,18.77Z"/><path class="cls-1" d="M20.86,19.59v1.09L16,21.43l-.34-1A20.08,20.08,0,0,1,20.86,19.59Z"/><path class="cls-1" d="M35.91,15.78l1-.42a8.72,8.72,0,0,1,.71,3.41H36.55Z"/><path class="cls-1" d="M26.55,21.35,25.06,21l.16-1.17c.5.11,1,.2,1.45.32.06,0,.11.19.1.29C26.72,20.75,26.63,21,26.55,21.35Z"/></g></g></g></svg>