<svg xmlns="http://www.w3.org/2000/svg" viewBox="0 0 48.47 49.39"><defs><style>.cls-1{fill:#eb6514;}</style></defs><g id="Livello_2" data-name="Livello 2"><g id="Livello_1-2" data-name="Livello 1"><g id="D3QPGh"><path class="cls-1" d="M25.2,26c-.34-1.49-.65-2.88-1-4.27l-3.42-15c-.16-.71.06-1,.79-1.2A22.18,22.18,0,1,1,10.88,43.13,21.66,21.66,0,0,1,4.21,25.2,31.58,31.58,0,0,1,5,20.84c.15-.69.55-.89,1.23-.68l15,4.65Zm4.13,18.23c0-.18,0-.31-.08-.43l-2.07-9.08c-.31-1.35-.61-2.7-.91-4.05a.79.79,0,0,1,.56-1,.81.81,0,0,1,1,.63c0,.08,0,.16.05.24q1.59,7,3.17,14l.58,2.54a20.61,20.61,0,0,0,14.06-13l-.77-.26-.77-.22-.15.34A18.43,18.43,0,0,1,36.66,43a34.79,34.79,0,0,1-3.26,1.71.75.75,0,0,1-.93-.17.69.69,0,0,1-.12-.9A1.53,1.53,0,0,1,33,43.2a17.15,17.15,0,0,0,8.74-8.09c.33-.64.6-1.32.91-2l-.47-.16-8.33-2.58L29.33,29a.79.79,0,0,1-.59-1,.8.8,0,0,1,1-.53l.21.07,13.83,4.28,2.32.71c2-5.35-.23-15.13-4.25-18.65L40.74,14.9c.08.11.14.21.21.29a18.58,18.58,0,0,1,4.2,10.45,31.16,31.16,0,0,1-.09,4,.73.73,0,0,1-.87.71.77.77,0,0,1-.69-.91c0-.15,0-.31,0-.46a17.18,17.18,0,0,0-2.86-11.44c-.33-.51-.72-1-1.1-1.51-.13.11-.22.18-.3.26l-9.86,9.12a.81.81,0,1,1-1.09-1.17l1.06-1,9.23-8.56,2.21-2.06A20.61,20.61,0,0,0,30.75,7.1,20.36,20.36,0,0,0,22.52,7l.35,1.58.5,0A18.27,18.27,0,0,1,34.08,10a34.9,34.9,0,0,1,3.4,2,.78.78,0,0,1,.2,1.15.81.81,0,0,1-1.13.15l-.21-.15A17.17,17.17,0,0,0,25.45,9.88c-.73,0-1.46.14-2.2.21a2.74,2.74,0,0,0,.05.32Q25.15,18.6,27,26.77c.21.94-.26,1.4-1.18,1.12l-3.36-1-14-4.3-2-.63a20.56,20.56,0,0,0,4.27,18.66l1.18-1.1-.12-.18a18.72,18.72,0,0,1-2.86-4.68,19,19,0,0,1-1.38-9.75.84.84,0,0,1,.68-.81c.59-.12,1,.36.91,1.08A17.24,17.24,0,0,0,11,35.31a15.61,15.61,0,0,0,2.07,3l.21-.18,7.4-6.86L23.2,29a.8.8,0,0,1,1-.16.72.72,0,0,1,.34.88,1.51,1.51,0,0,1-.41.57L13.28,40.33l-1.53,1.43a20.77,20.77,0,0,0,9.76,5.45,20.19,20.19,0,0,0,8.55.21c-.1-.44-.21-.84-.27-1.24s-.14-.35-.45-.3A18.66,18.66,0,0,1,17,43.71c-.73-.41-1.42-.89-2.1-1.36a.8.8,0,1,1,1-1.29l.17.12a17.26,17.26,0,0,0,9.45,3.34A16,16,0,0,0,29.33,44.25Z"/><path class="cls-1" d="M0,15.28A2.3,2.3,0,0,1,.07,15,22,22,0,0,1,16.16.05a.83.83,0,0,1,1.15.72L22,21.25c.21.92-.28,1.37-1.18,1.09L.71,16.18A.83.83,0,0,1,0,15.28Zm3.34,0,.08-.12.12-.32A18.77,18.77,0,0,1,13.62,4.31a.82.82,0,0,1,1.19.32c.21.46,0,.9-.55,1.14A17.25,17.25,0,0,0,6.85,12,16.07,16.07,0,0,0,4.92,15.8l15.22,4.67L15.88,1.74A20.91,20.91,0,0,0,1.78,14.82Z"/><path class="cls-1" d="M14,29.61a2.55,2.55,0,0,1,0,5.09,2.55,2.55,0,1,1,0-5.09ZM15,32.09a.94.94,0,0,0-1.88.12A.94.94,0,1,0,15,32.09Z"/><path class="cls-1" d="M33.34,35.39a2.55,2.55,0,0,1,5.09.06,2.55,2.55,0,1,1-5.09-.06Zm1.6.06a1,1,0,0,0,1,.94,1,1,0,0,0,.92-1,.93.93,0,0,0-1-.93A1,1,0,0,0,34.94,35.45Z"/><path class="cls-1" d="M26.23,37a2.55,2.55,0,1,1-2.56-2.53A2.51,2.51,0,0,1,26.23,37ZM23.7,36a.93.93,0,0,0-.95.93.94.94,0,1,0,1.88,0A.93.93,0,0,0,23.7,36Z"/><path class="cls-1" d="M31.74,15.85a2.55,2.55,0,1,1-2.52-2.56A2.57,2.57,0,0,1,31.74,15.85Zm-1.61,0a.94.94,0,1,0-.92,1A.94.94,0,0,0,30.13,15.82Z"/><path class="cls-1" d="M12.44,27.06a.77.77,0,0,1,.76-.84.88.88,0,0,1,.88,1,.78.78,0,0,1-.78.82A.87.87,0,0,1,12.44,27.06Z"/><path class="cls-1" d="M25.42,42.1a.78.78,0,0,1,.8-.8.89.89,0,0,1,.84,1,.8.8,0,0,1-.82.82A.89.89,0,0,1,25.42,42.1Z"/><path class="cls-1" d="M40.65,26.34a.79.79,0,0,1-.81.8.91.91,0,0,1-.82-1,.78.78,0,0,1,.82-.78A.91.91,0,0,1,40.65,26.34Z"/><path class="cls-1" d="M33.1,40a.76.76,0,0,1-.79.8.89.89,0,0,1-.84-1,.79.79,0,0,1,.82-.78A.89.89,0,0,1,33.1,40Z"/><path class="cls-1" d="M28.76,20.45a1,1,0,0,1-1,.94.8.8,0,0,1-.8-.81,1,1,0,0,1,1-.91A.78.78,0,0,1,28.76,20.45Z"/><path class="cls-1" d="M39.73,22.29a.78.78,0,0,1-.79.81.89.89,0,0,1-.85-1,.8.8,0,0,1,.77-.84A.89.89,0,0,1,39.73,22.29Z"/><path class="cls-1" d="M20.64,28.88a.78.78,0,0,1-.78.82c-.49,0-.85-.41-.85-1a.76.76,0,0,1,.79-.79C20.3,27.91,20.63,28.29,20.64,28.88Z"/><path class="cls-1" d="M30.8,34.2a.91.91,0,0,1-.84-1,.79.79,0,0,1,.78-.78.88.88,0,0,1,.86,1A.8.8,0,0,1,30.8,34.2Z"/><path class="cls-1" d="M19.8,39.76a.79.79,0,0,1-.8.8.9.9,0,0,1-.83-1,.78.78,0,0,1,.78-.82C19.47,38.76,19.8,39.15,19.8,39.76Z"/><path class="cls-1" d="M34.33,25.09a.79.79,0,0,1,.79-.81.9.9,0,0,1,.85.93.81.81,0,0,1-.78.87C34.7,26.1,34.34,25.69,34.33,25.09Z"/><path class="cls-1" d="M17.91,15.08a2.55,2.55,0,1,1-2.55-2.57A2.55,2.55,0,0,1,17.91,15.08Zm-1.61,0a.94.94,0,0,0-.93-1,1,1,0,1,0,.93,1Z"/><path class="cls-1" d="M13.87,11.06a.77.77,0,0,1-.8-.79,1,1,0,0,1,1-.93.79.79,0,0,1,.79.77A1,1,0,0,1,13.87,11.06Z"/><path class="cls-1" d="M11.64,12.85a1,1,0,0,1-1,.89.82.82,0,0,1-.73-.84,1.06,1.06,0,0,1,1-.91A.79.79,0,0,1,11.64,12.85Z"/></g></g></g></svg>