<svg xmlns="http://www.w3.org/2000/svg" viewBox="0 0 39.26 39.41"><defs><style>.cls-1{fill:#eb6514;stroke:#eb6513;stroke-miterlimit:10;stroke-width:0.25px;}</style></defs><g id="Livello_2" data-name="Livello 2"><g id="Livello_1-2" data-name="Livello 1"><g id="NugECl.tif"><path class="cls-1" d="M.13,1.29V.55C4,0,7.58.11,10.25,3.5A9.59,9.59,0,0,1,19.66.37a1.05,1.05,0,0,1,.61.48c.06.12-.15.46-.31.58a3.28,3.28,0,0,0-1.28,3.45,3.22,3.22,0,0,0,.5.06,9.36,9.36,0,0,1,6.69,2,1.13,1.13,0,0,0,1,.09,31.51,31.51,0,0,1,10.83-1.9c1.09,0,1.58.22,1.44,1.39-.37,3.27-.69,6.54-1,9.82.86-.13,1.14.44,1,1.46-.13,1.45-.1,2.92-.28,4.36-.71,5.59-3.36,9.75-8.87,11.7A1.16,1.16,0,0,0,29,35.18c0,1.37-.11,2.74-.17,4.11H10.36c-.07-1.33-.19-2.65-.16-4a1.29,1.29,0,0,0-1-1.46A12.4,12.4,0,0,1,.84,24.42C.58,23.29.36,22.15.13,21V16.63c.79-.07,1.59-.12,2.38-.21.34,0,.83-.06,1-.28C4.8,14.23,6,12.28,7.34,10.27l-1-.5C3.74,8.46,1.77,6.69,1.75,3.43A2,2,0,0,0,.13,1.29Zm1,16.28a26.69,26.69,0,0,0,1.46,9c1.54,4,6.49,7,10.31,6.87,4.82-.22,9.66,0,14.49-.06a6.85,6.85,0,0,0,1.9-.3C36,30.9,38.35,25.13,38,17.57ZM18.17,1.25c-.66.06-1.42.1-2.17.2-2.77.36-5.07,1.28-5.27,4.61,0,.21-.32.4-.48.6-.2-.26-.55-.5-.56-.77A3.92,3.92,0,0,0,8.2,2.82C6.45,1.48,4.4,1.3,2.25,1.3a6.91,6.91,0,0,1,.5,1.76c-.08,3.09,1.78,4.71,4.3,5.85,1.42.64,1.51.71.8,2.13-.89,1.8-1.93,3.52-2.91,5.27H15.37c-1-1.79-1.9-3.53-2.83-5.27-.57-1-.46-1.67.82-2.17,2.07-.79,3.77-2.08,4.21-4.48C17.76,3.38,18,2.37,18.17,1.25Zm7,6.53A8.19,8.19,0,0,0,19,6a1.34,1.34,0,0,0-.95.42c-1.11,1.82-2.83,2.84-5,3.83,1.23,1.95,2.4,3.83,3.6,5.67a1.13,1.13,0,0,0,.77.48c1.16.05,2.33,0,3.49,0C20.82,12.44,21.75,10.54,25.15,7.78ZM27.9,34.46H11.36v3.77H27.9ZM26.14,16.33l.51.21a9.88,9.88,0,0,0,1.23-.89C28.73,14.79,30,14,30.24,13a31.7,31.7,0,0,0,.11-6c-1.45.52-2.52.86-3.56,1.29-.27.12-.62.49-.62.74C26.12,11.42,26.14,13.88,26.14,16.33Zm12-8.91L32.57,13c1.4,0,2.85,0,4.29,0a1,1,0,0,0,.73-.69C37.83,10.59,38,8.9,38.14,7.42Zm-1.06,6.51a29.87,29.87,0,0,1-4.34,0c-2.1-.31-2.75,1.31-4.16,2.54h6.09c2,0,2,0,2.47-2C37.14,14.38,37.13,14.33,37.08,13.93Zm-12-4.6a6.55,6.55,0,0,0-2.88,7h2.88Zm6.33-2.55v4.89l5.5-5.51Z"/></g></g></g></svg>