<svg xmlns="http://www.w3.org/2000/svg" viewBox="0 0 40.65 40.66"><defs><style>.cls-1{fill:#eb6514;}</style></defs><g id="Livello_2" data-name="Livello 2"><g id="Livello_1-2" data-name="Livello 1"><g id="ZbUPIP.tif"><path class="cls-1" d="M21.08,0a1.1,1.1,0,0,0,.14.09A3,3,0,0,1,23,4.83a.28.28,0,0,0-.05.09c9.32,2,14.48,7.7,15.53,17.24.34,0,.75,0,1.16,0a1,1,0,0,1,1.06.52V23a1,1,0,0,1-1,.55H.66A.7.7,0,0,1,0,22.88a.65.65,0,0,1,.6-.69c.45,0,.91,0,1.36,0,.26,0,.51,0,.7,0,1-9.53,6.2-15.24,15.49-17.23a7.35,7.35,0,0,1-.51-1.16A3,3,0,0,1,19.83.09L20.08,0ZM36.9,22.13a16.35,16.35,0,0,0-32.69,0ZM19,3a1.6,1.6,0,0,0,1.61,1.61A1.65,1.65,0,0,0,22.15,3a1.59,1.59,0,0,0-1.63-1.58A1.54,1.54,0,0,0,19,3Z"/><path class="cls-1" d="M12.54,39.26c0,.11,0,.17,0,.23-.06,1.06-.17,1.17-1.25,1.17H7.05c-.84,0-1.07-.22-1.07-1V28.74c0-.83.23-1,1.06-1h4.1c1.19,0,1.24,0,1.39,1.26l1-.44c1.53-.7,3-1.45,4.6-2.06a7.71,7.71,0,0,1,2.59-.56c2.55-.08,5.1,0,7.64,0a2.55,2.55,0,1,1,0,5.09H24.16a2.94,2.94,0,0,0,.32.25c.92.59,1.84,1.16,2.76,1.76a.51.51,0,0,0,.64,0l8.64-5.12a2.22,2.22,0,0,1,3.34,1.32,2.16,2.16,0,0,1-.81,2.34c-3.26,2.35-6.53,4.68-9.8,7a3.92,3.92,0,0,1-2.3.74H12.54Zm0-1.39H26.57a3.59,3.59,0,0,0,2.13-.67C31.82,35,35,32.72,38.09,30.48a2.06,2.06,0,0,0,.43-.4.79.79,0,0,0,0-1,.76.76,0,0,0-1-.23,3.11,3.11,0,0,0-.4.22c-3,1.77-6,3.53-8.94,5.32a1.11,1.11,0,0,1-1.33,0c-1.75-1.13-3.51-2.22-5.27-3.32-.14-.09-.33-.16-.4-.29a1,1,0,0,1-.16-.7c.06-.19.32-.35.53-.47a1.11,1.11,0,0,1,.45,0h6.1a2.38,2.38,0,0,0,.8-.11,1.11,1.11,0,0,0,.65-1.27,1.07,1.07,0,0,0-1.11-.88c-2.66,0-5.31,0-8,0a4.63,4.63,0,0,0-1.71.39c-2,.85-3.94,1.77-5.92,2.65a.54.54,0,0,0-.36.59c0,2.15,0,4.31,0,6.46Zm-1.44-8.72H7.44V39.21h3.61Z"/><path class="cls-1" d="M8.73,18a.7.7,0,0,1-.56-1.09,13.62,13.62,0,0,1,8.49-7.35,1,1,0,0,1,.44-.07.65.65,0,0,1,.6.59.67.67,0,0,1-.48.77c-.68.26-1.38.48-2,.79a12,12,0,0,0-5.68,5.72C9.35,17.72,9.18,18,8.73,18Z"/></g></g></g></svg>