<svg xmlns="http://www.w3.org/2000/svg" viewBox="0 0 53.52 41.5"><defs><style>.cls-1{fill:#eb6514;stroke:#eb6513;stroke-miterlimit:10;stroke-width:0.5px;}</style></defs><g id="Livello_2" data-name="Livello 2"><g id="Livello_1-2" data-name="Livello 1"><g id="c7cCdI.tif"><path class="cls-1" d="M10.13,31.1c.59.94,1.2,1.87,1.77,2.83.79,1.31,1.51,2.68,2.35,3.94.46.7.82,1.56,1.6,1.92a.54.54,0,0,1,.2.31c.21.62.48.85,1,.66a6.48,6.48,0,0,0,1.81-.84,24.58,24.58,0,0,1,6.41-3.49c1.93-.72,3.8-1.66,5.71-2.48.4-.17.84-.19,1.25-.35,1.72-.65,3.43-1.34,5.15-2,.55-.22,1.11-.42,1.66-.63a3.69,3.69,0,0,0,1.74-1.34.79.79,0,0,1,.44-.33l-.76,1,.11.14,1.15-1.22.07.09-.67.67.09.12c.83-.3,1.66-.61,2.5-.88a9.52,9.52,0,0,0,3-1.51c1.36-1,3-1.28,4.48-2a6.54,6.54,0,0,0,.84-.57l0,0c.1-.08.28-.16.29-.26.09-.8.13-1.61.22-2.41,0-.25.16-.48.2-.72a1.23,1.23,0,0,0-.42-1.31l.27-.36a1.24,1.24,0,0,1,.49,1.22c-.09.94-.19,1.87-.31,2.8a2,2,0,0,1-1.2,1.73c-.72.29-1.45.57-2.17.87a11.76,11.76,0,0,0-1.94.9A25.72,25.72,0,0,1,42.13,30c-1.67.63-3.37,1.14-5,1.92a50,50,0,0,1-5.89,2.22c-1.32.46-2.6,1.07-3.89,1.64-1.61.69-3.22,1.39-4.81,2.14A8.27,8.27,0,0,0,21,39a14.1,14.1,0,0,1-3.94,2.24h-.3c-.46-.16-.92-.29-1.05-1,0-.18-.33-.26-.45-.43-.46-.69-.91-1.4-1.34-2.11-1-1.61-1.91-3.26-2.94-4.82-.85-1.3-1.83-2.49-2.74-3.74-.61-.86-1.21-1.72-1.76-2.63-1-1.62-1.92-3.29-2.92-4.9-.44-.71-1-1.3-1.49-2a8.18,8.18,0,0,1-.56-1l.11-.11.31.42c.34.49.68,1,1,1.46l2.48,3.9C6.5,26,7.58,27.74,8.68,29.44a1.74,1.74,0,0,0,.42.39Z"/><path class="cls-1" d="M.8,14.09a8,8,0,0,1,.35-1c.08-.18.28-.28.43-.41l.1.1c-.13.27-.27.54-.38.82a3.73,3.73,0,0,0,0,2.12,16,16,0,0,1,.23,1.84,1.12,1.12,0,0,1-.08.39L.8,14.33Z"/><path class="cls-1" d="M39.26,24a1.88,1.88,0,0,1,1.16,1.32,14.71,14.71,0,0,1,4.54-2,29.5,29.5,0,0,0,3.44-1,17,17,0,0,0,2.06-1.17c.44-.24.89-.45,1.34-.64.1-.05.23,0,.35.05l0,.16a2.77,2.77,0,0,1-.37.22,4.94,4.94,0,0,0-1.08.38,21.17,21.17,0,0,1-6.94,2.73,14.14,14.14,0,0,0-2.88,1.29c-.67.33-1.34.7-2,1.08a12.66,12.66,0,0,0-2.91,2,8.31,8.31,0,0,1-1.44,1l-.1-.19,1.35-.94-.07-.19c-2.15.78-4.3,1.57-6.46,2.34-1.19.42-2.42.73-3.58,1.24a41.78,41.78,0,0,1-6,2.5,11.45,11.45,0,0,0-1.67.78,2.36,2.36,0,0,1-.53.1l-.05-.18a2.28,2.28,0,0,1,.39-.24c.36-.16.72-.29,1.08-.43l1.84-.7a16,16,0,0,0,1.83-.75,25.85,25.85,0,0,1,7-2.76,19.7,19.7,0,0,0,2.76-1c.84-.32,1.69-.6,2.51-1s1.79-.85,2.68-1.29c.72-.35,1.43-.74,2.15-1.09.45-.22.48-.38.14-.79S39.49,24.3,39.26,24Z"/><path class="cls-1" d="M42,7.73c-.32-.29-.66-.56-1-.88a3.69,3.69,0,0,1-.31-.63c-.33-.53-.64-1.07-1-1.56a11.2,11.2,0,0,0-1-1.07c-.06-.06-.2,0-.3,0l-.65-.07V3.34l.38,0a11,11,0,0,0-1.48-1.72c-.33-.25-.89-.12-1.35-.11a1.86,1.86,0,0,0-.58.26l-.05-.17L36.23,1C35.92.42,35.43.53,35,.7c-.76.3-1.48.73-2.23,1.05-1.07.46-2.17.86-3.25,1.29S27.31,4,26.18,4.4C24.43,5,22.66,5.46,20.91,6c-2.21.69-4.4,1.42-6.6,2.12-.41.13-.83.21-1.32.33,1.13.4,2-.36,3.16-.56a5,5,0,0,1-3.43.85,4.28,4.28,0,0,0-1.43.35,15.93,15.93,0,0,0-1.55.38c-1.66.59-3.31,1.19-5,1.83-.92.35-1.81.8-2.77,1.08.31-.17.62-.38.94-.52,1.13-.51,2.26-1,3.41-1.5S8.71,9.42,9.91,9c1.35-.42,2.74-.69,4.09-1.1,3.86-1.17,7.7-2.35,11.54-3.58.88-.28,1.7-.79,2.57-1.13s1.9-.58,2.83-1c1.33-.54,2.63-1.16,3.95-1.76C35.78.1,36,.12,36.58,1a10.54,10.54,0,0,0,2.59,2.65A5.4,5.4,0,0,1,40.39,5c.59.87,1.12,1.8,1.67,2.71Z"/><path class="cls-1" d="M47.08,19.68a4.36,4.36,0,0,1-.42.23c-.52.19-1,.32-1.56.56a2.11,2.11,0,0,1-1.87-.22,7.63,7.63,0,0,0-1.33-.34,14.57,14.57,0,0,1-1.58-.39,11.6,11.6,0,0,1-1.22-.58,2.72,2.72,0,0,0,0-.71,2.21,2.21,0,0,1,1-2.64c2-1.42,5.27-.05,5.8,2.63A9.61,9.61,0,0,1,46,19.77l1-.16Zm-3.17-2.82c.24-.57.18-.66-.78-1.31l.41,1.26.11,0-.13-.61.09,0,.3.74A5.63,5.63,0,0,1,44,20.33l.16,0,.27-1.52.12,0-.09,1.46c.45,0,.7-.17.88-.65.23-.64-.14-1.32.17-1.93,0,0-.06-.13-.1-.19-.35.28-.25-.19-.35-.31a5.58,5.58,0,0,1-.35-.58,4.67,4.67,0,0,1,0,3.43,5.21,5.21,0,0,0-.33-3,4.86,4.86,0,0,0,.1.55,4.36,4.36,0,0,1,0,.51,7.24,7.24,0,0,1-.34-1.06C44.18,17,44,17,43.91,16.86Zm-4.23-.36a1.65,1.65,0,0,0,.66,2.65l.17-.57c.23.29-.26.89.37.93a.8.8,0,0,0,.11-.25c0-.28.06-.57.09-.86h.09v1.18c.49.07.67-.27.56-1.3a15.16,15.16,0,0,0-.45-1.84,4.11,4.11,0,0,1,.54,3.15c.74-.09.74-.09.25-2.93a4.72,4.72,0,0,1,.44,3.12l.31-.35.63.76.21-1.49.36.81a5.23,5.23,0,0,0-.4-2.56l.15,1.27a12.49,12.49,0,0,1-.62-1.81c-.23-.78-.38-.91-1-.91l.16.68c-.68-.89-.68-.89-2-.36l.11.43-.5-.18,0,.16.36.53Z"/><path class="cls-1" d="M22.79,11.28l.35-.19c-1.29-.75-1.43-2.61-.06-3.84a2.91,2.91,0,0,1,4.33.33,2.78,2.78,0,0,1,.23,3.34s0,.13,0,.23l.95-.07a2.39,2.39,0,0,1-2.38.07,3.15,3.15,0,0,0-2.48.1,4.4,4.4,0,0,1-.88.16Zm3.39-3.42a2.76,2.76,0,0,1,.93,2.49l-.45-1.51c.24,1.29.15,1.69-.44,1.74.34-.71.36-1,.15-1.42l-.16.9c-.12-.06-.16-.09-.15-.12a1.53,1.53,0,0,0-.53-1.59,3.84,3.84,0,0,0-1.27-.69,2.89,2.89,0,0,0-.72,0V7.48l.75-.19c-.83-.13-1.34.33-1.5,1.32l.53-.2c-.53,1.32-.34,1.87.71,2.19a2.74,2.74,0,0,0,.76,0v-.19a1.44,1.44,0,0,1,.51,0c.31.12.59.32.89.45.73.33,1.11.26,1.46-.31a3.42,3.42,0,0,0,.25-.68s0-.1,0-.15l-.12-.11-.09.47L27.51,10a2.65,2.65,0,0,0-1.22-2.38l-.23-.33.43,0,0-.14-1.2-.43-.06.12.37.25a3.19,3.19,0,0,1-.88-.18c-.07,0-.17.06-.24.13a.26.26,0,0,0,0,.21.26.26,0,0,0,.17,0c.18-.45.42-.09.58,0A5.8,5.8,0,0,1,26.18,7.86Zm-2.45,2.91a2,2,0,0,1-1.11-1.53C22.71,10.37,23,10.74,23.73,10.77Z"/><path class="cls-1" d="M17.62,16.62l.47-.29c-.17.43-.45.65-.84.6a1.38,1.38,0,0,0-1.24.46.9.9,0,0,1-.5.24,5,5,0,0,0-2.17.83,2.17,2.17,0,0,1-.77.18l0-.16.19-.18c-1.34-1.63-1.23-2.31-.65-4l-1.53.51,0-.1a6.93,6.93,0,0,1,1.28-.58,1.63,1.63,0,0,0,.91-.62,3.5,3.5,0,0,1,2.8-1.33c1.82.11,2.53,1.42,2.32,3.47C17.79,16,17.71,16.22,17.62,16.62Zm-.7-.09h.21a5.9,5.9,0,0,0,.09-1.5,2.79,2.79,0,0,0-.67-1.15,7.79,7.79,0,0,0-1-.8c1.14.15,1.7,1,2,2.29a2.27,2.27,0,0,0-2-2.69,3.62,3.62,0,0,0-3.21,1.65,2.38,2.38,0,0,0-.47,1.88l.6-1.44.13.08a6.37,6.37,0,0,0-.29,1.26,2.19,2.19,0,0,0,.26,1.11,4.29,4.29,0,0,0,.87.77l.07-.12c-.45-.44-1.12-1.67-1-1.94a2.54,2.54,0,0,1,.38-.5c-.22,1.06.06,1.91.85,2.14.31.09.69-.14,1-.22l0-.08.95.08.1-.47c.32.38.4.31.68-.68l.14.46c.44-1.07.07-2.11-1-3.09a2,2,0,0,1,.8.56A2.7,2.7,0,0,1,16.92,16.53Z"/><path class="cls-1" d="M23.89,27.33a2.47,2.47,0,0,1-2.24.78,5,5,0,0,0-1.53.33l.32-.36a3.45,3.45,0,0,1,.07-4.23,3.32,3.32,0,0,1,3.64-1.4c1.55.6,2.23,1.89,2,3.8.62.41,1.1-.3,1.66-.34l.08.18a2.23,2.23,0,0,1-.48.36,2.17,2.17,0,0,1-.94.13,2.24,2.24,0,0,0-2,.58l.24-.79.41.2-.27-1.9.07,0,.46,1.25c.23-.81-.15-1.59-1.36-2.59l.89.25,0,.29.38-.3a2.7,2.7,0,0,0-.59-.47,4,4,0,0,0-1.48-.45,3.22,3.22,0,0,0-1.64.6,4.45,4.45,0,0,0-1.21,1.43,2.63,2.63,0,0,0,.13,3,2.9,2.9,0,0,1,0-2.43,2.26,2.26,0,0,0,.8,2.64A2,2,0,0,1,20.78,26a2.12,2.12,0,0,0,1.08,1.74l-.41-.8.07-.06a5.1,5.1,0,0,0,.54.67c.42.36.86.5,1.32,0A1.52,1.52,0,0,1,23.89,27.33Z"/><path class="cls-1" d="M16.82,35.3c-.71-1-1.4-2-2.13-3a14.14,14.14,0,0,0-1.49-1.83,21.86,21.86,0,0,1-3.32-4.38c-.55-.86-1.13-1.7-1.66-2.58-.4-.67-.73-1.41-1.12-2.08S6.24,20,5.77,19.29c-.73-1-1.43-2.11-2.24-3.07a10,10,0,0,1-1.29-2.79l.1-.09a3.5,3.5,0,0,1,.41.73A9.37,9.37,0,0,0,4.31,17c.85,1.15,1.77,2.24,2.58,3.43.52.76.86,1.68,1.33,2.48.66,1.09,1.37,2.13,2,3.21.22.35.39.09.59,0,.93-.49,1.86-1,2.79-1.44l.06.17c-.81.41-1.63.83-2.45,1.23s-.75.45-.34,1.2a21.53,21.53,0,0,0,3,3.77c.63.72,1.18,1.54,1.77,2.31.29.38.58.76.86,1.15.16.22.3.45.44.68Z"/><path class="cls-1" d="M39.56,8.56l.83-.2,0,.2a12.6,12.6,0,0,0-1.24.35,2.51,2.51,0,0,0-1,.48c-.69.73-1.42,1.09-2.24.64a6.06,6.06,0,0,0-.27-.7,2.7,2.7,0,0,1-.16-2.64c.61-1.25,2.3-1.78,3.22-1A3,3,0,0,1,39.56,8C39.57,8.15,39.56,8.32,39.56,8.56Zm-1.73.58c.09-.11.27-.23.26-.33C38,8.18,37.91,7.55,37.81,7l.4.32L38.3,9a1.37,1.37,0,0,0,.24-1.46c-.13-.48-.34-.94-.54-1.48l.41.39.39-.38a1.92,1.92,0,0,0-2.49.07,2.24,2.24,0,0,0-.76,2.3c.1.56.25.77.56.84A2.16,2.16,0,0,1,36,6.91,2.76,2.76,0,0,0,37,9.86a.32.32,0,0,0,.2,0c.25-.2.62-.24.69-.69Z"/><path class="cls-1" d="M40.93,24.19a13.51,13.51,0,0,1,1.8-.87c1.61-.53,3.23-1,4.85-1.44a9.63,9.63,0,0,0,2.64-1.37,8.6,8.6,0,0,1,1.33-.65c.1,0,.25.08.38.12a1.57,1.57,0,0,1-.31.28,5.09,5.09,0,0,0-1,.35,20.32,20.32,0,0,1-6.93,2.75,16,16,0,0,0-2.23.86L41,24.4Z"/><path class="cls-1" d="M47.9,14.18c1.11,1.19,2.24,2.35,3.31,3.57a14.19,14.19,0,0,1,1.22,1.77,1,1,0,0,1,0,.61c-.22-1.11-1.06-1.61-1.62-2.36-.07-.09-.27-.07-.4-.05a10.89,10.89,0,0,1-1.08.22,1.53,1.53,0,0,1-.61-.23v-.25l1.3-.54-2.18-2.69Z"/><path class="cls-1" d="M12.94,33.1,14.19,33v-.11H13.13l0-.11.86-.19v-.11l-1.18.14,0-.09,1-.31v-.09h-1l0-.06.6-.22,0-.13a3.25,3.25,0,0,1-.62.13,1.49,1.49,0,0,1-.44-.11c.11-.21.2-.55.35-.59.71-.23,2.31,1.59,2.16,2.43a.57.57,0,0,1-.35.36C13.61,34,13.43,33.9,12.94,33.1Zm.44.17-.05.12.39.33.91-.45Z"/><path class="cls-1" d="M35.08,25.76a6.52,6.52,0,0,1,2.3-2c.13-.05.41,0,.45.1s.08.53,0,.61a18.3,18.3,0,0,1-1.94,1.6C35.74,26.16,35.42,25.9,35.08,25.76Zm.67-.32.11.18,1.66-1.5C36.69,24.16,36.28,24.9,35.75,25.44Z"/><path class="cls-1" d="M29.76,29.32c2-.81,4-1.89,6.24-2.22a1.42,1.42,0,0,1-.37.33c-.47.2-1,.37-1.43.54l-3.91,1.37c-.16.06-.33.1-.49.15Z"/><path class="cls-1" d="M25,17.31a2.6,2.6,0,0,1,.45.68.63.63,0,0,1-.21.54,16.83,16.83,0,0,1-1.77.72c-.09,0-.28-.1-.33-.22s-.05-.39,0-.44C23.72,18.16,24.32,17.77,25,17.31Zm.25.64-.14-.3-1.75.94.07.21C24,18.38,24.77,18.62,25.23,18Z"/><path class="cls-1" d="M4.89,21.6c-.53-.55-.95-.93-1.31-1.39a2.19,2.19,0,0,1-.24-.82c.25.05.6,0,.75.18A7.7,7.7,0,0,1,4.93,21C5,21.1,4.91,21.31,4.89,21.6Z"/><path class="cls-1" d="M25.34,31.08,22.13,32.6a5.84,5.84,0,0,1,3.14-1.73Z"/><path class="cls-1" d="M36.8,26.84a3.16,3.16,0,0,1,2.82-1.54Z"/><path class="cls-1" d="M20.7,33a22.45,22.45,0,0,1-3.36,1.43A8,8,0,0,1,20.7,33Z"/><path class="cls-1" d="M29.58,28.66c-.9.6-2.34,1.05-2.58.85l1.59-.61,0-.15c-.41.06-.82.1-1.22.19a4.27,4.27,0,0,1-.94.21A4.89,4.89,0,0,1,29.58,28.66Z"/><path class="cls-1" d="M14.07,20.89l-.47-.62a4.68,4.68,0,0,1,2.8-.72C15.58,19.85,14.69,19.94,14.07,20.89Z"/><path class="cls-1" d="M28.43,15.65c.15-.09.29-.25.44-.25a3,3,0,0,0,1.83-1A2,2,0,0,1,32.49,14c0,.07,0,.13-.05.13a3.49,3.49,0,0,0-2.15.92,8,8,0,0,1-1.78.74Z"/><path class="cls-1" d="M15.81,8.77l.53.34c-.11.17-.19.41-.34.49a6,6,0,0,1-1.2.5.44.44,0,0,1-.42-.25.6.6,0,0,1,.18-.5C15,9.12,15.38,9,15.81,8.77Zm-1.44,1a1.52,1.52,0,0,0,1.47-.53C15.29,9,14.89,9.35,14.37,9.76Z"/><path class="cls-1" d="M32.82,24.75A6,6,0,0,1,31.47,27c-.12.12-.4,0-.7,0Z"/><path class="cls-1" d="M9.42,28.31l-2-4.07.12-.15c.16.16.41.29.47.49a10.73,10.73,0,0,0,1.25,2.85,4,4,0,0,1,.28.83Z"/><path class="cls-1" d="M26.11,20.22A9.73,9.73,0,0,1,27.18,19a2.5,2.5,0,0,1,1.15-.48,11.43,11.43,0,0,0-.94.78,2.81,2.81,0,0,0-.64.88.69.69,0,0,1-.77.51c.06-.21.11-.35.15-.49,0,.07,0,.14,0,.21.15-.06.34-.07.43-.19a6.32,6.32,0,0,0,.44-.86l0,0Z"/><path class="cls-1" d="M15.34,29.17l2.1-2.29.13.15c-.15.18-.3.36-.44.55-.38.53-.75,1.08-1.15,1.59a1.61,1.61,0,0,1-.49.3Z"/><path class="cls-1" d="M29.78,4.53l-2.15.14V4.43c.67-.92,1.45.09,2.15-.18Z"/><path class="cls-1" d="M36.07,21.22c.47.46.47.7,0,1s-.83.42-1.25.62l-.14-.2L35.69,21l.13.11L35,22.41C35.81,22.23,36.2,21.79,36.07,21.22Z"/><path class="cls-1" d="M33.28,10.28,32,10.62v.13l1.53.19V11H31C31.48,10.49,33,10,33.28,10.28Z"/><path class="cls-1" d="M13.41,10.82l-2.48.58,0,.23.88-.09-.91.43-.39-.81,2.86-.5Z"/><path class="cls-1" d="M25.06,35.2A4,4,0,0,1,28.31,34c-.23.13-.38.3-.53.29a2.68,2.68,0,0,0-2.09.72C25.53,35.13,25.27,35.13,25.06,35.2Z"/><path class="cls-1" d="M10.3,18.5a6.21,6.21,0,0,1-1.43.39c-.36,0-.72-.27-1.09-.37-.13,0-.28.09-.49.17l-.07-.32h3.06Z"/><path class="cls-1" d="M6.16,14.14l-1.33.24.83.22v.11l-1.57-.14,0-.11a1.28,1.28,0,0,1,.26-.17c.52-.15,1-.3,1.56-.43C6.17,13.79,6.2,13.84,6.16,14.14Z"/><path class="cls-1" d="M29.36,6.64c.07-.93,1.15-1.46,2.9-1.44C31.24,5.53,30.11,5.53,29.36,6.64Z"/><path class="cls-1" d="M17.39,24.84l1.46-.12c-.23.78-.79.86-1.43.35Z"/><path class="cls-1" d="M45.14,11.17,42,7.73l0,0,3.11,3.41Z"/><path class="cls-1" d="M49.09,25c.4.08.78.13,1.16.24.12,0,.22.19.33.3-.12.11-.24.34-.35.33A1.44,1.44,0,0,1,49.09,25Z"/><path class="cls-1" d="M18.45,10.33h-.24l0-.12,2.22-.57V9.7L17.6,11l-.05-.13.92-.48Z"/><path class="cls-1" d="M22,35.83a1.08,1.08,0,0,1-1.36,0c-.1-.07-.09-.33-.12-.51a1.13,1.13,0,0,1,.41,0C21.28,35.46,21.63,35.65,22,35.83Z"/><path class="cls-1" d="M19.1,7.08a12.38,12.38,0,0,1,1.6-.68,9.94,9.94,0,0,1,2-.25c-.43.16-.87.49-1.28.44a2.74,2.74,0,0,0-1.76.46l-.49.22Z"/><path class="cls-1" d="M33.46,31.79a1.19,1.19,0,0,1-1.09.84c-.13,0-.23-.23-.35-.36a1.72,1.72,0,0,1,.37-.25C32.75,31.92,33.12,31.86,33.46,31.79Z"/><path class="cls-1" d="M45.17,11.12l2.73,3.06,0,.05-2.71-3.06Z"/><path class="cls-1" d="M10,14,9,14.43a4.62,4.62,0,0,1-1,.4l.43-.32,0-.09-.63.18C7.8,14.28,8.65,14,10,14Z"/><path class="cls-1" d="M40.37,22.6c.52-.19,1-.39,1.55-.56,0,0,.13.07.2.11s-.09.27-.16.29c-.5.16-1,.29-1.52.42Z"/><path class="cls-1" d="M9.86,21.65c.44-.7.9-.83,1.33-.4C10.81,21.59,10.44,21.9,9.86,21.65Z"/><path class="cls-1" d="M16.87,39.29l.19-3.43A6.81,6.81,0,0,1,16.87,39.29Z"/><path class="cls-1" d="M30.28,19a1.51,1.51,0,0,1,1.26-.68C31.6,18.88,30.9,19.27,30.28,19Z"/><path class="cls-1" d="M17.05,32.76c1.09,0,1.82-.83,2.66-1.43C18.75,32.5,17.61,33.15,17.05,32.76Z"/><path class="cls-1" d="M21.73,14.77l1.46.33a1.87,1.87,0,0,1-1.44.48c-.11,0-.21-.18-.36-.31h1l0-.09-.74-.32Z"/><path class="cls-1" d="M33.14,14l2.3-1.17.08.24-2.32,1.1Z"/><path class="cls-1" d="M15.91,37.87c-.16,0-.39.1-.49,0-.57-.51-1.1-1.06-1.65-1.6l.13-.18a6.78,6.78,0,0,0,.86,1,6.94,6.94,0,0,0,1.09.62Z"/><path class="cls-1" d="M2.86,16.43a2.86,2.86,0,0,1-.94-2.32Z"/><path class="cls-1" d="M15.54,32.06a1,1,0,0,1,1.11-.59C16.44,32.12,16.08,32.32,15.54,32.06Z"/><path class="cls-1" d="M39.6,12.66c-.27.5-.66.46-1.77-.13Z"/><path class="cls-1" d="M43.88,24.52l1.83-.33A1.37,1.37,0,0,1,43.88,24.52Z"/><path class="cls-1" d="M50.71,19.45l-2,.9,0-.11,1.94-1.1Z"/><path class="cls-1" d="M18.11,21.26c1.46-1.8,1.48-1.83,2.05-1.54C19.08,19.54,18.81,20.79,18.11,21.26Z"/><path class="cls-1" d="M11,28.5a1.06,1.06,0,0,1,.23.19c.55.72,1.09,1.44,1.68,2.1l-2-2.16Z"/><path class="cls-1" d="M21.85,18.78l-1.59,1.06C20.78,19,21.33,18.62,21.85,18.78Z"/><path class="cls-1" d="M10.13,31.1l-1-1.27L9,29.52A1.81,1.81,0,0,1,10.13,31.1Z"/><path class="cls-1" d="M35.3,19.93l1.4-1.68.1.11L35.45,20.1Z"/><path class="cls-1" d="M36.57,14.68c0,1.55-.17,2-.62,2Z"/><path class="cls-1" d="M35.65,4.18a1.47,1.47,0,0,1,1.67-.56Z"/><path class="cls-1" d="M15.31,35.14c.49-.12.63.25.77.6,0,0-.14.25-.19.24A.81.81,0,0,1,15.31,35.14Z"/><path class="cls-1" d="M23.44,29.9c.34-.48.68-.33,1-.13C24.11,30.23,23.91,30.26,23.44,29.9Z"/><path class="cls-1" d="M3.77,12.39c1-.8,1.22-.91,1.53-.58Z"/><path class="cls-1" d="M14,12.09a1.77,1.77,0,0,1-1.91.67Z"/><path class="cls-1" d="M11.79,24.49l2-.8A2.8,2.8,0,0,1,11.79,24.49Z"/><path class="cls-1" d="M15.13,23.09c.38-.44.69-.48,1,0Z"/><path class="cls-1" d="M41.58,10.19c1.22-1,1.49-.92,1.68-.21C42.58,9.27,42.15,10.15,41.58,10.19Z"/><path class="cls-1" d="M47.07,16.5c.35-.23.66-.65,1.3-.31l-1.25.47Z"/><path class="cls-1" d="M52.08,25.19l-.66.26-.08-.12c.35-.25.78-.45.54-1.11a.81.81,0,0,1,.18,1Z"/><path class="cls-1" d="M44.23,22l-1.31.28,0-.27,1.33-.22Z"/><path class="cls-1" d="M42,11.2l1.13.39,0,.17L42,11.49Z"/><path class="cls-1" d="M6.57,21.49,5.57,20C6.27,20.26,6.38,20.91,6.57,21.49Z"/><path class="cls-1" d="M34,6.54l1.28-.38,0,.17-1.26.41Z"/><path class="cls-1" d="M27.46,23l.83-.89.14.17-.83.9Z"/><path class="cls-1" d="M44.56,14.78l-.65-1.33.13-.08c.13.5.67.74.65,1.35Z"/><path class="cls-1" d="M15.47,26.1l-1.08.6-.09-.21L15.38,26Z"/><path class="cls-1" d="M42.51,15.86a4.39,4.39,0,0,1,.66,3.69A8.7,8.7,0,0,0,42.51,15.86Z"/><path class="cls-1" d="M41.75,16.61a4.46,4.46,0,0,1,.46,2.67Z"/><path class="cls-1" d="M24.52,8.42a.73.73,0,0,1,.82.58.92.92,0,0,1-.1,1.07C25.27,9.27,25.09,8.71,24.52,8.42Z"/><path class="cls-1" d="M37.84,9.13,37.35,7.9l.17-.07c.44.3.3.84.31,1.31Z"/></g></g></g></svg>