<svg xmlns="http://www.w3.org/2000/svg" viewBox="0 0 44.31 33.38"><defs><style>.cls-1{fill:#eb6514;}</style></defs><g id="Livello_2" data-name="Livello 2"><g id="Livello_1-2" data-name="Livello 1"><g id="hmVCyY.tif"><path class="cls-1" d="M40.06,0A3.56,3.56,0,0,1,42,1.2a2.94,2.94,0,0,1-1,4.46C38.77,6.8,36.57,7.89,34.38,9l-9.23,4.69-.39.21v5.39l1-.36q7.18-2.84,14.39-5.67a2.81,2.81,0,0,1,3.57.74,2.93,2.93,0,0,1-1.47,4.59C36.6,20.54,31,22.51,25.36,24.45a.71.71,0,0,0-.58.82,14,14,0,0,1-.05,2.59,5,5,0,0,1-2.3,3.27,12.33,12.33,0,0,1-5.35,2,16.86,16.86,0,0,1-8.34-.65c-.82-.3-1.58-.76-2.38-1.12a1,1,0,0,0-.66-.07c-.81.26-1.6.56-2.4.83a4.53,4.53,0,0,1-.94.26C1.1,32.54.59,32.21,0,30.93v-.68a2.83,2.83,0,0,1,1.92-1.91c.45-.17.91-.35,1.35-.55.11,0,.26-.18.26-.27,0-.93,0-1.85,0-2.82l-.37.13C1.59,25.44.62,25,0,23.49v-.58a3.25,3.25,0,0,1,1.84-2.09c.46-.24.89-.54,1.35-.78a.6.6,0,0,0,.35-.62c0-1.48,0-3,0-4.45a4.11,4.11,0,0,1,1.21-3.1A11.6,11.6,0,0,1,6.9,10.21a11.73,11.73,0,0,1,4.53-1.43,16.89,16.89,0,0,1,9.29,1.08.74.74,0,0,0,.76,0Q27.39,6.46,33.3,3.12C35.21,2.05,37.15,1,39.08,0ZM5.35,26.94c.16-.05.28-.08.4-.13l16.9-6.64a.51.51,0,0,0,.38-.56c0-1.45-.05-2.91,0-4.36a3.42,3.42,0,0,0-1.89-3.12,7.05,7.05,0,0,0-.76-.3c-.38-.18-.71-.45-1.1-.59a15.32,15.32,0,0,0-7.94-.64,10.06,10.06,0,0,0-4.55,1.79A3.2,3.2,0,0,0,5.31,15c0,2.45,0,4.89,0,7.34,0,.4,0,.8,0,1.2Zm-3.6,3.54.08.22c.47-.15.95-.28,1.41-.44L37,18.49l4.74-1.65a1.06,1.06,0,0,0,.66-1.46,1,1,0,0,0-1.37-.57l-32.86,13C7.1,28.21,6,28.69,5,29.12c-.83.33-1.68.62-2.51.95A4.47,4.47,0,0,0,1.75,30.48ZM23,25.27,8.33,30.38a1.53,1.53,0,0,0,.23.14l.55.22a15.82,15.82,0,0,0,8.1.55,9.77,9.77,0,0,0,4.43-1.82A3.06,3.06,0,0,0,23,27.3C23.06,26.66,23,26,23,25.27Zm1-13,.34-.17L36.51,5.9c1.19-.6,2.38-1.19,3.57-1.81a1.17,1.17,0,0,0,.68-1.33,1.16,1.16,0,0,0-1-.94,1.91,1.91,0,0,0-.95.26Q31,6.45,23.24,10.85l-.39.24ZM3.5,22c-1.19.55-1.6.88-1.62,1.3C3,23.2,3.56,22.73,3.5,22Z"/><path class="cls-1" d="M14.14,11.12a12.42,12.42,0,0,1,6.31,1.73A5.56,5.56,0,0,1,21.73,14a1.87,1.87,0,0,1,0,2.39,5.14,5.14,0,0,1-2.27,1.72A13.12,13.12,0,0,1,8.65,18,6.57,6.57,0,0,1,6.7,16.5a1.84,1.84,0,0,1,0-2.58,6.76,6.76,0,0,1,4-2.24C11.78,11.4,13,11.3,14.14,11.12ZM13.76,13a15.16,15.16,0,0,0-2.37.34,13.23,13.23,0,0,0-2.77,1.17c-.83.46-.8.88,0,1.41a7.34,7.34,0,0,0,1.32.72,11.81,11.81,0,0,0,6.68.54,7.67,7.67,0,0,0,3.27-1.35c.61-.47.61-.75,0-1.21a6.18,6.18,0,0,0-1-.64A11.57,11.57,0,0,0,13.76,13Z"/><path class="cls-1" d="M14.19,16.85a13.6,13.6,0,0,1-2-.61c-.9-.43-.9-1.28,0-1.73a4.32,4.32,0,0,1,4,0c.88.45.88,1.27,0,1.7A13.36,13.36,0,0,1,14.19,16.85Z"/></g></g></g></svg>